<?xml version="1.0" encoding="UTF-8" standalone="no"?>
<!-- Created with Inkscape (http://www.inkscape.org/) -->

<svg
   version="1.1"
   id="svg1"
   xml:space="preserve"
   width="486.86871"
   height="486.89334"
   xmlns:inkscape="http://www.inkscape.org/namespaces/inkscape"
   xmlns:sodipodi="http://sodipodi.sourceforge.net/DTD/sodipodi-0.dtd"
   xmlns="http://www.w3.org/2000/svg"
   xmlns:svg="http://www.w3.org/2000/svg"><defs
     id="defs1" /><sodipodi:namedview
     id="namedview1"
     pagecolor="#505050"
     bordercolor="#ffffff"
     borderopacity="1"
     inkscape:showpageshadow="0"
     inkscape:pageopacity="0"
     inkscape:pagecheckerboard="1"
     inkscape:deskcolor="#505050" /><inkscape:clipboard
     style="font-variation-settings:normal;opacity:1;vector-effect:none;fill:#022d5f;fill-opacity:1;stroke-width:3.77952756;stroke-linecap:butt;stroke-linejoin:miter;stroke-miterlimit:4;stroke-dasharray:none;stroke-dashoffset:0;stroke-opacity:1;-inkscape-stroke:none;stop-color:#000000;stop-opacity:1"
     min="930.69207,403.40285"
     max="1417.5608,890.2962"
     geom-min="930.69207,403.40285"
     geom-max="1417.5608,890.2962" /><g
     id="layer1"
     transform="matrix(3.7795276,0,0,3.7795276,-930.69208,-403.40286)"><g
       id="g38"
       transform="translate(190.67718,14.243356)"><path
         style="fill:#69a3e6"
         d="m 149.0166,190.36662 c -2.25093,-1.41216 -2.03282,-4.53967 0.39137,-5.612 3.43894,-1.52121 6.14944,2.75092 3.39006,5.34322 -0.90053,0.846 -2.66181,0.97119 -3.78143,0.26878 z m 3.23502,-1.33361 c 1.15832,-1.13701 0.13547,-3.4376 -1.52838,-3.4376 -1.57286,0 -2.52076,1.74766 -1.73957,3.20732 0.58528,1.09361 2.26766,1.21216 3.26795,0.23028 z m 9.67934,1.27245 c -1.71806,-1.16576 -1.93124,-3.53318 -0.44396,-4.9304 2.2317,-2.09658 5.72012,-0.4351 5.39099,2.56764 -0.26712,2.437 -2.94951,3.71814 -4.94703,2.36276 z m 3.21735,-1.17826 c 0.95894,-0.86399 0.68182,-2.9327 -0.45108,-3.36744 -2.00291,-0.76859 -3.75242,1.16802 -2.74898,3.04297 0.55749,1.04167 2.21725,1.20996 3.20006,0.32447 z M 87.633262,172.90412 c -1.760512,-1.10449 -2.03452,-3.53996 -0.563746,-5.01073 1.866133,-1.86614 4.941053,-0.88904 5.431633,1.72598 0.501727,2.67443 -2.554026,4.73639 -4.867887,3.28475 z m 3.167126,-1.23942 c 1.361299,-1.22651 0.404747,-3.50295 -1.480506,-3.52338 -1.549537,-0.0168 -2.497115,1.74601 -1.719548,3.19891 0.557485,1.04167 2.217244,1.20996 3.200054,0.32447 z m 71.130572,1.17825 c -3.06035,-2.07654 -0.79406,-6.84255 2.72091,-5.72206 2.33875,0.74554 3.03739,3.57791 1.30889,5.30641 -1.11038,1.11038 -2.75581,1.2801 -4.0298,0.41565 z m 3.21735,-1.17825 c 0.66203,-0.59648 0.81219,-1.58843 0.36992,-2.44368 -0.96525,-1.86658 -3.85186,-1.19825 -3.85186,0.89182 0,1.88827 2.07975,2.8152 3.48194,1.55186 z m -48.04252,-7.34653 c -6.38119,-2.69069 -6.78159,-11.22948 -0.675,-14.39496 3.9956,-2.07121 9.06839,-0.27185 10.8831,3.86032 2.79908,6.37364 -3.83637,13.22135 -10.2081,10.53464 z m 4.78815,-1.37435 c 4.32167,-1.46724 5.77933,-6.65149 2.84782,-10.12841 -3.68516,-4.37078 -10.98101,-1.62108 -10.95916,4.13035 0.0166,4.37937 4.06392,7.3722 8.11134,5.99806 z m 27.36252,-16.31221 c -2.32479,-1.19476 -2.28812,-4.78077 0.0591,-5.77791 3.00605,-1.27703 5.85628,1.90445 4.07465,4.54821 -0.99404,1.47506 -2.68025,1.97668 -4.13374,1.2297 z m 2.99424,-1.50918 c 1.15496,-1.15496 0.13917,-3.44786 -1.52746,-3.44786 -1.86256,0 -2.70049,2.25544 -1.34245,3.61347 0.78483,0.78483 1.98895,0.71535 2.86991,-0.16561 z m 9.41567,-24.31693 c -8.81881,-2.9035 -7.19485,-15.64343 1.99407,-15.64343 7.14217,0 10.66009,8.51251 5.60642,13.56618 -1.79385,1.79386 -5.43701,2.78955 -7.60049,2.07725 z m 3.85459,-1.7452 c 7.179,-2.1418 5.01426,-12.99972 -2.4384,-12.23054 -6.10649,0.63024 -7.77742,8.95153 -2.36002,11.75298 1.80933,0.93565 2.89936,1.04413 4.79842,0.47756 z m -59.94626,-2.97258 c -1.42101,-0.51946 -2.342,-2.42972 -1.86632,-3.87104 0.67642,-2.04956 2.50242,-2.88526 4.43572,-2.03008 3.73546,1.65238 1.27381,7.30602 -2.5694,5.90112 z m 2.54289,-1.49106 c 2.04397,-1.75815 -0.51834,-4.73388 -2.6395,-3.06538 -1.11806,0.87947 -0.85597,2.8945 0.44464,3.41853 0.9437,0.38023 1.43396,0.30135 2.19486,-0.35315 z"
         id="path40" /><path
         style="fill:#106cd6"
         d="m 57.288245,221.06678 c -0.291042,-0.12063 -0.767292,-0.48396 -1.058334,-0.8074 -0.51728,-0.57486 -0.530628,-1.00792 -0.594259,-19.27966 -0.07128,-20.46902 -0.132512,-19.64631 1.523982,-20.47713 1.418022,-0.71121 36.410034,-0.71121 37.828056,0 1.643209,0.82415 1.583016,0.0517 1.587281,20.36833 l 0.0039,18.58281 -0.771961,0.86407 -0.771962,0.86407 -18.608768,0.0521 c -10.234823,0.0287 -18.846894,-0.0466 -19.137935,-0.16721 z m 11.097497,-2.19274 c 0.334199,-0.47714 0.411878,-1.45018 0.411878,-5.15938 0,-6.03913 0.409465,-5.62967 -5.62967,-5.62967 -6.213143,0 -5.747414,-0.45512 -5.747414,5.61657 0,6.26476 -0.500213,5.76052 5.714547,5.76052 4.700323,0 4.850567,-0.0168 5.250659,-0.58804 z m 12.892608,0.15016 c 0.434315,-0.39305 0.483854,-0.92129 0.483854,-5.15938 0,-6.21852 0.431762,-5.77983 -5.688542,-5.77983 -6.116436,0 -5.688542,-0.4313 -5.688542,5.73386 0,6.12355 -0.480262,5.64323 5.64257,5.64323 4.064266,0 4.838117,-0.0645 5.25066,-0.43788 z m 13.301143,-0.15016 c 0.334199,-0.47714 0.411878,-1.45018 0.411878,-5.15938 0,-6.04423 0.418904,-5.62967 -5.688542,-5.62967 -6.116435,0 -5.688542,-0.4313 -5.688542,5.73386 0,6.12886 -0.49177,5.64323 5.714547,5.64323 4.700323,0 4.850567,-0.0168 5.250659,-0.58804 z M 68.268454,205.96833 c 0.810166,-0.81017 0.810166,-9.50859 0,-10.31875 -0.73851,-0.73851 -9.563004,-0.81624 -10.364063,-0.0913 -0.697702,0.63141 -0.737537,9.69118 -0.04597,10.45535 0.696575,0.76971 9.633917,0.7308 10.410035,-0.0453 z m 12.964583,0 c 0.48885,-0.48885 0.529167,-0.88195 0.529167,-5.15938 0,-6.12246 0.442871,-5.68854 -5.805831,-5.68854 -6.022317,0 -5.571253,-0.469 -5.571253,5.79273 0,6.05196 -0.468683,5.58435 5.597258,5.58435 4.368715,0 4.761031,-0.0395 5.250659,-0.52916 z m 13.229168,0 c 0.488849,-0.48885 0.529166,-0.88195 0.529166,-5.15938 0,-6.11643 0.431302,-5.68854 -5.733854,-5.68854 -6.123548,0 -5.64323,-0.48026 -5.64323,5.64257 0,6.22585 -0.479574,5.73451 5.597258,5.73451 4.368715,0 4.761031,-0.0395 5.25066,-0.52916 z M 68.268454,192.73916 c 0.488849,-0.48885 0.529166,-0.88194 0.529166,-5.15938 0,-6.10744 0.414569,-5.68854 -5.62967,-5.68854 -6.213143,0 -5.747414,-0.45512 -5.747414,5.61657 0,6.25596 -0.481405,5.76052 5.597258,5.76052 4.368715,0 4.761031,-0.0395 5.25066,-0.52917 z m 13.009896,0.0913 c 0.434315,-0.39305 0.483854,-0.92128 0.483854,-5.15937 0,-6.21852 0.431762,-5.77983 -5.688542,-5.77983 -6.116436,0 -5.688542,-0.4313 -5.688542,5.73386 0,6.12355 -0.480262,5.64323 5.64257,5.64323 4.064266,0 4.838117,-0.0645 5.25066,-0.43789 z m 13.183855,-0.0913 c 0.488849,-0.48885 0.529166,-0.88194 0.529166,-5.15938 0,-6.11256 0.424023,-5.68854 -5.688542,-5.68854 -6.116435,0 -5.688542,-0.4313 -5.688542,5.73386 0,6.12013 -0.473019,5.64323 5.597258,5.64323 4.368715,0 4.761031,-0.0395 5.25066,-0.52917 z m -7.534003,-2.8997 c -0.08629,-0.13963 0.260505,-0.71589 0.770666,-1.28057 l 0.927565,-1.02671 -0.786281,-0.7533 c -0.432455,-0.41432 -0.786281,-0.90962 -0.786281,-1.10068 0,-0.58859 0.657496,-0.38626 1.457158,0.44841 l 0.76241,0.79579 0.857152,-0.83079 c 0.589212,-0.57109 1.002486,-0.77501 1.322082,-0.65237 0.402487,0.15445 0.334205,0.30914 -0.508394,1.15173 l -0.973326,0.97333 0.97602,0.99954 c 0.760472,0.77879 0.905728,1.06982 0.657731,1.31782 -0.247996,0.248 -0.540135,0.10166 -1.322824,-0.66261 l -1.004535,-0.98091 -0.899056,0.9276 c -0.944768,0.97475 -1.192815,1.08999 -1.450087,0.67372 z m 30.689898,-0.003 c -0.0873,-0.1412 0.25581,-0.70675 0.76238,-1.25677 l 0.92105,-1.00005 -0.95524,-0.98323 c -0.82372,-0.84786 -0.89201,-1.00751 -0.49598,-1.15948 0.31229,-0.11984 0.73171,0.0878 1.31051,0.64881 l 0.85124,0.82506 0.82745,-0.82745 c 0.57153,-0.57153 0.97142,-0.7722 1.29294,-0.64881 0.40484,0.15535 0.34102,0.30676 -0.48974,1.16187 l -0.95525,0.98323 0.93745,1.01795 c 1.34281,1.4581 0.76754,2.00683 -0.65136,0.62132 l -1.00454,-0.98091 -0.89905,0.9276 c -0.9463,0.97632 -1.1927,1.09018 -1.45186,0.67086 z m 56.88719,0.003 c -0.0863,-0.13963 0.2605,-0.71589 0.77066,-1.28057 l 0.92757,-1.02671 -0.78628,-0.7533 c -0.43246,-0.41432 -0.78628,-0.90962 -0.78628,-1.10068 0,-0.58859 0.65749,-0.38626 1.45716,0.44841 l 0.76241,0.79579 0.82104,-0.79579 c 0.76634,-0.74277 1.72189,-1.06636 1.72189,-0.5831 0,0.11697 -0.41742,0.61725 -0.92759,1.11173 l -0.92759,0.89906 0.9809,1.00454 c 0.76427,0.78268 0.91061,1.07482 0.66261,1.32282 -0.248,0.248 -0.54013,0.10166 -1.32282,-0.66261 l -1.00454,-0.98091 -0.89905,0.9276 c -0.94477,0.97475 -1.19282,1.08999 -1.45009,0.67372 z M 86.917437,159.13037 c -0.09221,-0.1492 0.263947,-0.70289 0.79147,-1.23041 l 0.959132,-0.95914 -0.807084,-0.8327 c -0.443896,-0.45798 -0.807084,-0.97586 -0.807084,-1.15083 0,-0.56153 0.672877,-0.34096 1.457158,0.47765 l 0.76241,0.79579 0.857152,-0.83079 c 0.589212,-0.57108 1.002486,-0.77501 1.322082,-0.65237 0.402487,0.15445 0.334205,0.30914 -0.508394,1.15174 l -0.973326,0.97332 0.97602,0.99954 c 0.760472,0.77879 0.905728,1.06983 0.657731,1.31782 -0.247996,0.248 -0.540135,0.10166 -1.322824,-0.66261 l -1.004535,-0.9809 -0.899056,0.92759 c -0.953821,0.98409 -1.192106,1.09114 -1.460852,0.6563 z m 61.392333,0.0146 c -0.0873,-0.1412 0.25581,-0.70675 0.76238,-1.25677 l 0.92105,-1.00004 -0.95525,-0.98324 c -0.82371,-0.84785 -0.892,-1.00751 -0.49597,-1.15948 0.31228,-0.11984 0.73171,0.0878 1.31051,0.64881 l 0.85124,0.82506 0.82745,-0.82745 c 0.57152,-0.57152 0.97141,-0.77219 1.29294,-0.64881 0.40484,0.15535 0.34102,0.30676 -0.48974,1.16187 l -0.95525,0.98324 0.93745,1.01794 c 1.34281,1.4581 0.76753,2.00684 -0.65136,0.62132 l -1.00454,-0.9809 -0.89906,0.92759 c -0.94629,0.97633 -1.19269,1.09018 -1.45185,0.67086 z m -78.136316,-40.0129 c -0.613597,-0.61359 -0.296042,-1.14931 2.118534,-3.57397 l 2.436034,-2.4462 -2.457987,-2.50645 c -2.479605,-2.5285 -2.761557,-3.10015 -1.821149,-3.69237 0.390084,-0.24566 0.836634,0.0843 2.915388,2.15445 1.350111,1.3445 2.574366,2.44454 2.720567,2.44454 0.1462,0 1.215526,-0.96075 2.376278,-2.13501 2.335087,-2.36226 2.803242,-2.70039 3.41421,-2.46594 0.913569,0.35057 0.397309,1.30253 -2.026129,3.73609 l -2.44217,2.45236 2.44217,2.45237 c 2.444929,2.45514 2.772317,3.02968 2.062208,3.61901 -0.541416,0.44934 -0.991789,0.13764 -3.578055,-2.47638 l -2.238226,-2.26225 -2.553358,2.50863 c -2.642238,2.59595 -2.836878,2.72256 -3.368315,2.19112 z"
         id="path39" /><path
         style="fill:#022d5f"
         d="m 100.84133,220.94493 c -1.364778,-0.75643 -1.332617,-0.26945 -1.342666,-20.33024 l -0.0094,-18.7151 0.772046,-0.86407 0.77205,-0.86407 h 18.9334 18.9334 l 0.73362,0.73362 0.73361,0.73362 v 19.06569 19.06569 l -0.86407,0.77204 -0.86407,0.77205 -18.5828,-0.009 c -14.91634,-0.008 -18.70757,-0.0785 -19.21514,-0.35986 z m 11.20066,-2.07089 c 0.33412,-0.47701 0.41188,-1.4492 0.41188,-5.14907 0,-6.02744 0.39423,-5.63998 -5.73843,-5.63998 -6.04956,0 -5.63865,-0.41025 -5.63865,5.62967 0,6.21912 -0.46687,5.74742 5.68854,5.74742 4.7272,0 4.87644,-0.0166 5.27666,-0.58804 z m 13.11188,0.0589 c 0.84883,-0.84883 0.80691,-9.51021 -0.0499,-10.30844 -0.87886,-0.81879 -9.45177,-0.82739 -10.26886,-0.0103 -0.73851,0.73851 -0.81623,9.563 -0.0913,10.36406 0.69657,0.76971 9.63392,0.73081 10.41003,-0.0453 z m 13.08187,-0.0589 c 0.69661,-0.99454 0.59888,-9.54372 -0.11728,-10.25988 -0.81709,-0.81708 -9.39,-0.80848 -10.26886,0.0103 -0.8568,0.79823 -0.89872,9.45961 -0.0499,10.30844 0.85913,0.85914 9.82848,0.80854 10.43603,-0.0589 z m -26.31103,-12.90571 c 0.48884,-0.48885 0.52916,-0.88195 0.52916,-5.15938 0,-6.11256 0.42402,-5.68854 -5.68854,-5.68854 -6.11256,0 -5.68854,-0.42402 -5.68854,5.68854 0,4.27743 0.0403,4.67053 0.52916,5.15938 0.48885,0.48885 0.88195,0.52916 5.15938,0.52916 4.27743,0 4.67053,-0.0403 5.15938,-0.52916 z m 13.22916,0 c 0.48885,-0.48885 0.52917,-0.88195 0.52917,-5.15938 0,-4.27743 -0.0403,-4.67052 -0.52917,-5.15937 -0.48885,-0.48885 -0.88194,-0.52917 -5.15937,-0.52917 -6.11257,0 -5.68854,-0.42402 -5.68854,5.68854 0,4.27743 0.0403,4.67053 0.52916,5.15938 0.48885,0.48885 0.88195,0.52916 5.15938,0.52916 4.27743,0 4.67052,-0.0403 5.15937,-0.52916 z m 12.96459,0 c 0.48885,-0.48885 0.52916,-0.88195 0.52916,-5.15938 0,-4.27743 -0.0403,-4.67052 -0.52916,-5.15937 -0.48885,-0.48885 -0.88195,-0.52917 -5.15938,-0.52917 -4.27743,0 -4.67052,0.0403 -5.15937,0.52917 -0.48885,0.48885 -0.52917,0.88194 -0.52917,5.15937 0,4.27743 0.0403,4.67053 0.52917,5.15938 0.48885,0.48885 0.88194,0.52916 5.15937,0.52916 4.27743,0 4.67053,-0.0403 5.15938,-0.52916 z m -26.19375,-13.22917 c 0.48884,-0.48885 0.52916,-0.88194 0.52916,-5.15938 0,-6.11256 0.42402,-5.68854 -5.68854,-5.68854 -6.11256,0 -5.68854,-0.42402 -5.68854,5.68854 0,4.27744 0.0403,4.67053 0.52916,5.15938 0.48885,0.48885 0.88195,0.52917 5.15938,0.52917 4.27743,0 4.67053,-0.0403 5.15938,-0.52917 z m 13.22916,0 c 0.48885,-0.48885 0.52917,-0.88194 0.52917,-5.15938 0,-4.27743 -0.0403,-4.67052 -0.52917,-5.15937 -0.48885,-0.48885 -0.88194,-0.52917 -5.15937,-0.52917 -6.11257,0 -5.68854,-0.42402 -5.68854,5.68854 0,4.27744 0.0403,4.67053 0.52916,5.15938 0.48885,0.48885 0.88195,0.52917 5.15938,0.52917 4.27743,0 4.67052,-0.0403 5.15937,-0.52917 z m 12.96459,0 c 0.48885,-0.48885 0.52916,-0.88194 0.52916,-5.15938 0,-4.27743 -0.0403,-4.67052 -0.52916,-5.15937 -0.48885,-0.48885 -0.88195,-0.52917 -5.15938,-0.52917 -4.27743,0 -4.67052,0.0403 -5.15937,0.52917 -0.48885,0.48885 -0.52917,0.88194 -0.52917,5.15937 0,4.27744 0.0403,4.67053 0.52917,5.15938 0.48885,0.48885 0.88194,0.52917 5.15937,0.52917 4.27743,0 4.67053,-0.0403 5.15938,-0.52917 z m 5.9215,27.67025 -0.90476,-0.90475 0.0713,-18.93308 0.0713,-18.93308 0.73353,-0.73352 0.73352,-0.73353 18.71335,-0.0681 c 18.33579,-0.0668 18.73084,-0.0574 19.57984,0.46314 0.47657,0.2922 0.98493,0.84276 1.12967,1.22348 0.168,0.44186 0.23738,7.43529 0.19185,19.33625 l -0.0713,18.64404 -0.86407,0.77196 -0.86407,0.77196 h -18.8077 -18.8077 z m 11.80558,-1.4765 c 0.84399,-0.84399 0.80576,-9.32877 -0.0461,-10.23555 -0.83364,-0.88737 -9.39909,-0.95674 -10.27263,-0.0832 -0.73851,0.73851 -0.81623,9.563 -0.0913,10.36406 0.69657,0.76971 9.63391,0.73081 10.41003,-0.0453 z m 13.08187,-0.0589 c 0.3342,-0.47714 0.41188,-1.45018 0.41188,-5.15938 0,-6.04423 0.4189,-5.62967 -5.68854,-5.62967 -4.27743,0 -4.67053,0.0403 -5.15938,0.52917 -0.48885,0.48885 -0.52916,0.88195 -0.52916,5.15938 0,6.12246 -0.44287,5.68854 5.80583,5.68854 4.60599,0 4.75977,-0.0175 5.15937,-0.58804 z m 13.11188,0.0589 c 0.48885,-0.48885 0.52917,-0.88194 0.52917,-5.15937 0,-4.27743 -0.0403,-4.67053 -0.52917,-5.15938 -0.48885,-0.48885 -0.88194,-0.52917 -5.15937,-0.52917 -6.10745,0 -5.68855,-0.41456 -5.68855,5.62967 0,6.20931 -0.44773,5.74742 5.57126,5.74742 4.39472,0 4.78682,-0.0393 5.27666,-0.52917 z m -26.19375,-12.96458 c 0.48885,-0.48885 0.52917,-0.88195 0.52917,-5.15938 0,-4.27743 -0.0403,-4.67052 -0.52917,-5.15937 -0.48885,-0.48885 -0.88194,-0.52917 -5.15937,-0.52917 -6.12247,0 -5.68855,-0.44287 -5.68855,5.80583 0,6.01899 -0.46189,5.57125 5.74742,5.57125 4.21856,0 4.61217,-0.0408 5.1005,-0.52916 z m 12.96458,0 c 0.48885,-0.48885 0.52917,-0.88195 0.52917,-5.15938 0,-4.27743 -0.0403,-4.67052 -0.52917,-5.15937 -0.48885,-0.48885 -0.88194,-0.52917 -5.15937,-0.52917 -4.27743,0 -4.67053,0.0403 -5.15938,0.52917 -0.48885,0.48885 -0.52916,0.88194 -0.52916,5.15937 0,4.27743 0.0403,4.67053 0.52916,5.15938 0.48885,0.48885 0.88195,0.52916 5.15938,0.52916 4.27743,0 4.67052,-0.0403 5.15937,-0.52916 z m 13.22917,0 c 0.48885,-0.48885 0.52917,-0.88195 0.52917,-5.15938 0,-4.27743 -0.0403,-4.67052 -0.52917,-5.15937 -0.48885,-0.48885 -0.88194,-0.52917 -5.15937,-0.52917 -4.27743,0 -4.67053,0.0403 -5.15938,0.52917 -0.48885,0.48885 -0.52917,0.88194 -0.52917,5.15937 0,4.27743 0.0403,4.67053 0.52917,5.15938 0.48885,0.48885 0.88195,0.52916 5.15938,0.52916 4.27743,0 4.67052,-0.0403 5.15937,-0.52916 z m -26.19375,-13.22917 c 0.48885,-0.48885 0.52917,-0.88194 0.52917,-5.15938 0,-4.27743 -0.0403,-4.67052 -0.52917,-5.15937 -0.48885,-0.48885 -0.88194,-0.52917 -5.15937,-0.52917 -6.12247,0 -5.68855,-0.44287 -5.68855,5.80583 0,6.01899 -0.46189,5.57126 5.74742,5.57126 4.21856,0 4.61217,-0.0408 5.1005,-0.52917 z m 12.96458,0 c 0.48885,-0.48885 0.52917,-0.88194 0.52917,-5.15938 0,-4.27743 -0.0403,-4.67052 -0.52917,-5.15937 -0.48885,-0.48885 -0.88194,-0.52917 -5.15937,-0.52917 -4.27743,0 -4.67053,0.0403 -5.15938,0.52917 -0.48885,0.48885 -0.52916,0.88194 -0.52916,5.15937 0,4.27744 0.0403,4.67053 0.52916,5.15938 0.48885,0.48885 0.88195,0.52917 5.15938,0.52917 4.27743,0 4.67052,-0.0403 5.15937,-0.52917 z m 13.22917,0 c 0.48885,-0.48885 0.52917,-0.88194 0.52917,-5.15938 0,-4.27743 -0.0403,-4.67052 -0.52917,-5.15937 -0.48885,-0.48885 -0.88194,-0.52917 -5.15937,-0.52917 -4.27743,0 -4.67053,0.0403 -5.15938,0.52917 -0.48885,0.48885 -0.52917,0.88194 -0.52917,5.15937 0,4.27744 0.0403,4.67053 0.52917,5.15938 0.48885,0.48885 0.88195,0.52917 5.15938,0.52917 4.27743,0 4.67052,-0.0403 5.15937,-0.52917 z M 56.920493,177.0241 c -1.364301,-0.75618 -1.332615,-0.27951 -1.342664,-20.19795 l -0.0094,-18.58281 0.772047,-0.86407 0.772046,-0.86407 h 18.961116 18.961116 l 0.772047,0.86407 0.772046,0.86407 v 18.54198 c 0,20.26719 0.04888,19.60997 -1.511386,20.32088 -1.002834,0.45692 -37.315484,0.37877 -38.146992,-0.0821 z m 11.347961,-1.74744 c 0.817083,-0.81708 0.808478,-9.39 -0.01031,-10.26886 -0.79823,-0.8568 -9.459616,-0.89872 -10.308444,-0.0499 -0.859139,0.85914 -0.808542,9.82848 0.05887,10.43604 0.994541,0.6966 9.543718,0.59887 10.259879,-0.11729 z m 12.964583,0 c 0.48885,-0.48885 0.529167,-0.88195 0.529167,-5.15938 0,-6.11256 0.424022,-5.68854 -5.688542,-5.68854 -6.112564,0 -5.688542,-0.42402 -5.688542,5.68854 0,6.11257 -0.424022,5.68855 5.688542,5.68855 4.277431,0 4.670526,-0.0403 5.159375,-0.52917 z m 13.229168,0 c 0.488849,-0.48885 0.529166,-0.88195 0.529166,-5.15938 0,-6.11256 0.424023,-5.68854 -5.688542,-5.68854 -6.112564,0 -5.688542,-0.42402 -5.688542,5.68854 0,6.11257 -0.424022,5.68855 5.688542,5.68855 4.277431,0 4.670526,-0.0403 5.159376,-0.52917 z M 68.268454,162.04749 c 0.843989,-0.84399 0.805757,-9.32877 -0.04612,-10.23555 -0.833639,-0.88737 -9.399088,-0.95674 -10.27263,-0.0832 -0.738509,0.73851 -0.816233,9.563 -0.09128,10.36406 0.696575,0.76971 9.633917,0.73081 10.410035,-0.0453 z m 12.964583,0 c 0.48885,-0.48885 0.529167,-0.88194 0.529167,-5.15937 0,-6.11257 0.424022,-5.68854 -5.688542,-5.68854 -4.277431,0 -4.670526,0.0403 -5.159375,0.52916 -0.488849,0.48885 -0.529167,0.88195 -0.529167,5.15938 0,6.11256 -0.424022,5.68854 5.688542,5.68854 4.277431,0 4.670526,-0.0403 5.159375,-0.52917 z m 13.229168,0 c 0.843989,-0.84399 0.805757,-9.32877 -0.04612,-10.23555 -0.833639,-0.88737 -9.399088,-0.95674 -10.27263,-0.0832 -0.71616,0.71616 -0.813893,9.26534 -0.117289,10.25988 0.60756,0.86741 9.5769,0.91801 10.43604,0.0589 z M 68.268454,148.81832 c 0.843989,-0.84398 0.805757,-9.32876 -0.04612,-10.23555 -0.833639,-0.88737 -9.399088,-0.95674 -10.27263,-0.0832 -0.738509,0.73851 -0.816233,9.56301 -0.09128,10.36407 0.696575,0.7697 9.633917,0.7308 10.410035,-0.0453 z m 13.081872,-0.0589 c 0.334112,-0.47701 0.411878,-1.4492 0.411878,-5.14906 0,-6.02744 0.394226,-5.63998 -5.738432,-5.63998 -6.049556,0 -5.638652,-0.41025 -5.638652,5.62967 0,6.21911 -0.466869,5.74741 5.688542,5.74741 4.727196,0 4.876435,-0.0166 5.276664,-0.58804 z m 13.111879,0.0589 c 0.843989,-0.84398 0.805757,-9.32876 -0.04612,-10.23555 -0.833639,-0.88737 -9.399088,-0.95674 -10.27263,-0.0832 -0.738509,0.73851 -0.816233,9.56301 -0.09128,10.36407 0.696575,0.7697 9.633917,0.7308 10.410035,-0.0453 z m 6.379125,28.20578 c -1.363792,-0.75589 -1.332617,-0.29019 -1.342666,-20.05739 -0.0067,-13.24568 0.07551,-18.62853 0.291867,-19.10339 0.693109,-1.52121 0.349269,-1.4975 20.579859,-1.41953 l 18.52998,0.0714 0.73352,0.73362 0.73352,0.73361 v 18.9334 18.9334 l -0.86407,0.77205 -0.86407,0.77205 -18.5828,-0.009 c -14.91634,-0.008 -18.70757,-0.0785 -19.21514,-0.35985 z m 22.00177,-12.48294 c 6.41023,-2.18418 7.00558,-11.39571 0.94874,-14.67938 -5.54312,-3.00516 -12.26147,1.35181 -11.807,7.65704 0.38613,5.35699 5.68615,8.78466 10.85826,7.02234 z m -5.59901,-2.13253 c -5.0108,-2.49699 -4.27365,-9.77228 1.1499,-11.34895 5.23799,-1.52272 9.68605,4.25991 6.91454,8.98914 -1.67664,2.86097 -5.06756,3.85322 -8.06444,2.35981 z m 27.25349,14.61547 c -1.3643,-0.75618 -1.33262,-0.27951 -1.34266,-20.19795 l -0.009,-18.58281 0.77196,-0.86407 0.77196,-0.86407 18.64404,-0.0713 c 11.90096,-0.0455 18.89439,0.0239 19.33625,0.19184 0.38072,0.14475 0.93129,0.65311 1.2235,1.12968 0.5205,0.84891 0.5299,1.24393 0.46314,19.47525 l -0.0681,18.60877 -0.86407,0.77196 -0.86407,0.77197 -18.7151,-0.009 c -15.02615,-0.008 -18.83974,-0.0785 -19.34743,-0.35985 z m 11.34796,-1.74744 c 0.48885,-0.48885 0.52917,-0.88195 0.52917,-5.15938 0,-4.27743 -0.0403,-4.67052 -0.52917,-5.15937 -0.48885,-0.48885 -0.88194,-0.52917 -5.15937,-0.52917 -6.12247,0 -5.68855,-0.44287 -5.68855,5.80583 0,6.01899 -0.46189,5.57126 5.74742,5.57126 4.21856,0 4.61217,-0.0408 5.1005,-0.52917 z m 12.96458,0 c 0.48885,-0.48885 0.52917,-0.88195 0.52917,-5.15938 0,-4.27743 -0.0403,-4.67052 -0.52917,-5.15937 -0.48885,-0.48885 -0.88194,-0.52917 -5.15937,-0.52917 -4.27743,0 -4.67053,0.0403 -5.15938,0.52917 -0.48885,0.48885 -0.52916,0.88194 -0.52916,5.15937 0,4.27743 0.0403,4.67053 0.52916,5.15938 0.48885,0.48885 0.88195,0.52917 5.15938,0.52917 4.27743,0 4.67052,-0.0403 5.15937,-0.52917 z m 13.22917,0 c 0.48885,-0.48885 0.52917,-0.88195 0.52917,-5.15938 0,-4.27743 -0.0403,-4.67052 -0.52917,-5.15937 -0.48885,-0.48885 -0.88194,-0.52917 -5.15937,-0.52917 -4.27743,0 -4.67053,0.0403 -5.15938,0.52917 -0.48885,0.48885 -0.52917,0.88194 -0.52917,5.15937 0,4.27743 0.0403,4.67053 0.52917,5.15938 0.48885,0.48885 0.88195,0.52917 5.15938,0.52917 4.27743,0 4.67052,-0.0403 5.15937,-0.52917 z m -26.19375,-13.22917 c 0.48885,-0.48885 0.52917,-0.88194 0.52917,-5.15937 0,-6.11257 0.42402,-5.68854 -5.68854,-5.68854 -6.11644,0 -5.68855,-0.43131 -5.68855,5.73385 0,6.12013 -0.47302,5.64323 5.59726,5.64323 4.36872,0 4.76103,-0.0395 5.25066,-0.52917 z m 12.96458,0 c 0.48885,-0.48885 0.52917,-0.88194 0.52917,-5.15937 0,-6.11257 0.42402,-5.68854 -5.68854,-5.68854 -6.11257,0 -5.68854,-0.42403 -5.68854,5.68854 0,4.27743 0.0403,4.67052 0.52916,5.15937 0.48885,0.48885 0.88195,0.52917 5.15938,0.52917 4.27743,0 4.67052,-0.0403 5.15937,-0.52917 z m 13.22917,0 c 0.48885,-0.48885 0.52917,-0.88194 0.52917,-5.15937 0,-6.11257 0.42402,-5.68854 -5.68854,-5.68854 -6.11257,0 -5.68855,-0.42403 -5.68855,5.68854 0,4.27743 0.0403,4.67052 0.52917,5.15937 0.48885,0.48885 0.88195,0.52917 5.15938,0.52917 4.27743,0 4.67052,-0.0403 5.15937,-0.52917 z m -26.19375,-13.22917 c 0.84399,-0.84398 0.80576,-9.32876 -0.0461,-10.23555 -0.83364,-0.88737 -9.39909,-0.95674 -10.27263,-0.0832 -0.73851,0.73851 -0.81623,9.56301 -0.0913,10.36407 0.69657,0.7697 9.63391,0.7308 10.41003,-0.0453 z m 13.08187,-0.0589 c 0.3342,-0.47713 0.41188,-1.45017 0.41188,-5.15937 0,-6.03992 0.4109,-5.62967 -5.63865,-5.62967 -6.13266,0 -5.73843,-0.38746 -5.73843,5.63998 0,6.20718 -0.4661,5.7371 5.68854,5.7371 4.72719,0 4.87643,-0.0166 5.27666,-0.58804 z m 13.22917,0 c 0.3342,-0.47713 0.41188,-1.45017 0.41188,-5.15937 0,-6.04424 0.4189,-5.62967 -5.68854,-5.62967 -6.10745,0 -5.68855,-0.41457 -5.68855,5.62967 0,6.21911 -0.46687,5.74741 5.68855,5.74741 4.72719,0 4.87643,-0.0166 5.27666,-0.58804 z M 56.920493,133.10326 c -1.363685,-0.75583 -1.332615,-0.29236 -1.342664,-20.02883 -0.0092,-18.010601 0.0021,-18.424035 0.513552,-18.886919 0.28761,-0.260284 0.451293,-0.589149 0.363741,-0.730811 -0.09525,-0.154113 0.0602,-0.187939 0.387,-0.08422 0.394031,0.12506 0.627757,0.02094 0.838998,-0.373771 0.292297,-0.546161 0.32536,-0.546998 18.795614,-0.475736 l 18.502802,0.07139 0.733522,0.733522 0.733522,0.733522 0.07145,18.579593 c 0.07673,19.95287 0.09043,19.73521 -1.286207,20.44709 -1.05583,0.54599 -37.327705,0.56036 -38.311333,0.0152 z m 16.621276,-16.16231 2.553358,-2.50863 2.238226,2.26225 c 2.586266,2.61402 3.036639,2.92572 3.578055,2.47638 0.710109,-0.58933 0.382721,-1.16387 -2.062208,-3.61901 l -2.44217,-2.45237 2.44217,-2.45236 c 2.423438,-2.43356 2.939698,-3.38552 2.026129,-3.73609 -0.610968,-0.23445 -1.079123,0.10368 -3.41421,2.46594 -1.160752,1.17426 -2.230078,2.13501 -2.376278,2.13501 -0.146201,0 -1.370456,-1.10004 -2.720567,-2.44454 -2.078754,-2.07011 -2.525304,-2.40011 -2.915388,-2.15445 -0.940408,0.59222 -0.658456,1.16387 1.821149,3.69237 l 2.457987,2.50645 -2.436034,2.4462 c -2.414576,2.42466 -2.732131,2.96038 -2.118534,3.57397 0.531437,0.53144 0.726077,0.40483 3.368315,-2.19112 z m 27.204281,16.24576 c -1.266464,-0.73765 -1.256762,-0.58067 -1.256762,-20.33441 V 94.322505 l 0.772042,-0.86407 0.77205,-0.864071 h 18.9334 18.9334 l 0.73362,0.733522 0.73361,0.733522 0.0799,18.581062 c 0.0874,20.34008 0.12377,19.82176 -1.44012,20.53431 -0.8667,0.3949 -37.5838,0.40442 -38.2611,0.01 z m 11.17866,-1.83089 c 0.48884,-0.48884 0.52916,-0.88194 0.52916,-5.15937 0,-6.11257 0.42402,-5.68854 -5.68854,-5.68854 -6.10745,0 -5.68854,-0.41457 -5.68854,5.62967 0,6.20931 -0.44774,5.74741 5.57125,5.74741 4.39472,0 4.78682,-0.0393 5.27667,-0.52917 z m 13.22916,0 c 0.48885,-0.48884 0.52917,-0.88194 0.52917,-5.15937 0,-6.11257 0.42402,-5.68854 -5.68854,-5.68854 -6.11644,0 -5.68854,-0.4313 -5.68854,5.73385 0,6.12014 -0.47302,5.64323 5.59725,5.64323 4.36872,0 4.76103,-0.0395 5.25066,-0.52917 z m 12.96459,0 c 0.48885,-0.48884 0.52916,-0.88194 0.52916,-5.15937 0,-6.11257 0.42403,-5.68854 -5.68854,-5.68854 -6.11256,0 -5.68854,-0.42403 -5.68854,5.68854 0,4.27743 0.0403,4.67053 0.52917,5.15937 0.48885,0.48885 0.88194,0.52917 5.15937,0.52917 4.27743,0 4.67053,-0.0403 5.15938,-0.52917 z m -26.07647,-13.28803 c 0.33404,-0.47691 0.41188,-1.44836 0.41188,-5.14018 v -4.55213 l -0.69714,-0.54837 c -1.04833,-0.82462 -9.32969,-0.84029 -10.15078,-0.0192 -0.71616,0.71616 -0.81389,9.26533 -0.11728,10.25988 0.64211,0.91675 9.91121,0.91675 10.55332,0 z m 13.11188,0.0589 c 0.84399,-0.84399 0.80576,-9.32877 -0.0461,-10.23555 -0.83364,-0.88737 -9.39909,-0.95674 -10.27263,-0.0832 -0.73851,0.73851 -0.81623,9.563 -0.0913,10.36406 0.69657,0.76971 9.63392,0.7308 10.41003,-0.0453 z m 13.08187,-0.0589 c 0.3342,-0.47714 0.41188,-1.45018 0.41188,-5.15938 0,-6.037 0.40557,-5.62967 -5.60534,-5.62967 -6.13274,0 -5.77174,-0.355 -5.77174,5.67579 0,6.16574 -0.46341,5.70129 5.68854,5.70129 4.7272,0 4.87644,-0.0166 5.27666,-0.58803 z m -26.31103,-12.90572 c 0.48884,-0.48885 0.52916,-0.88194 0.52916,-5.15937 0,-6.112566 0.42402,-5.688544 -5.68854,-5.688544 -6.11256,0 -5.68854,-0.424022 -5.68854,5.688544 0,6.11256 -0.42402,5.68854 5.68854,5.68854 4.27743,0 4.67053,-0.0403 5.15938,-0.52917 z m 13.22916,0 c 0.48885,-0.48885 0.52917,-0.88194 0.52917,-5.15937 0,-6.112566 0.42402,-5.688544 -5.68854,-5.688544 -6.11257,0 -5.68854,-0.424022 -5.68854,5.688544 0,6.11256 -0.42403,5.68854 5.68854,5.68854 4.27743,0 4.67052,-0.0403 5.15937,-0.52917 z m 12.96459,0 c 0.48885,-0.48885 0.52916,-0.88194 0.52916,-5.15937 0,-6.112566 0.42403,-5.688544 -5.68854,-5.688544 -4.27743,0 -4.67052,0.04032 -5.15937,0.529167 -0.48885,0.488849 -0.52917,0.881944 -0.52917,5.159377 0,6.11256 -0.42402,5.68854 5.68854,5.68854 4.27743,0 4.67053,-0.0403 5.15938,-0.52917 z m 6.37912,27.94119 c -1.3643,-0.75617 -1.33262,-0.27951 -1.34266,-20.19795 l -0.009,-18.582805 0.77196,-0.86407 0.77196,-0.864071 18.64404,-0.07134 c 11.90096,-0.04554 18.89439,0.02385 19.33625,0.191843 0.38072,0.144749 0.93129,0.653101 1.2235,1.12967 0.5205,0.848916 0.5299,1.243934 0.46314,19.475263 l -0.0681,18.60877 -0.86407,0.77196 -0.86407,0.77196 -18.7151,-0.009 c -15.02615,-0.008 -18.83974,-0.0785 -19.34743,-0.35986 z m 22.59275,-12.70903 c 2.98611,-1.34545 4.49792,-3.84174 4.49792,-7.42695 0,-2.17324 -0.0716,-2.50836 -0.81989,-3.83646 -2.58548,-4.58894 -8.86623,-5.53632 -12.63058,-1.90517 -6.53637,6.3051 0.66753,16.90154 8.95255,13.16858 z m -6.17315,-1.89805 c -5.73644,-2.85859 -3.70511,-11.49795 2.71188,-11.53378 1.83967,-0.0103 3.4105,0.68862 4.60965,2.05093 4.49457,5.10611 -1.22879,12.51899 -7.32153,9.48285 z"
         id="path38" /></g></g></svg>
