<?xml version="1.0" encoding="UTF-8" standalone="no"?>
<svg
   width="1024"
   height="1024"
   viewBox="0 0 1024 1024"
   version="1.1"
   id="svg21"
   sodipodi:docname="logo_no_bg.svg"
   inkscape:version="1.4.2 (ebf0e940d0, 2025-05-08)"
   xmlns:inkscape="http://www.inkscape.org/namespaces/inkscape"
   xmlns:sodipodi="http://sodipodi.sourceforge.net/DTD/sodipodi-0.dtd"
   xmlns="http://www.w3.org/2000/svg"
   xmlns:svg="http://www.w3.org/2000/svg">
  <defs
     id="defs21" />
  <sodipodi:namedview
     id="namedview21"
     pagecolor="#505050"
     bordercolor="#ffffff"
     borderopacity="1"
     inkscape:showpageshadow="0"
     inkscape:pageopacity="0"
     inkscape:pagecheckerboard="1"
     inkscape:deskcolor="#505050"
     inkscape:zoom="0.54511261"
     inkscape:cx="561.3519"
     inkscape:cy="554.01397"
     inkscape:window-width="1123"
     inkscape:window-height="616"
     inkscape:window-x="0"
     inkscape:window-y="0"
     inkscape:window-maximized="1"
     inkscape:current-layer="svg21" />
  <path
     fill="#2594a6"
     d="m 669.67396,466.17808 c 17.40766,-12.236 70.7828,1.95262 89.80893,11.459 33.68002,46.94067 57.32497,89.71935 44.90444,150.49391 -48.35422,236.61545 -391.10466,279.92789 -522.11822,88.18225 -27.28732,-39.88352 -30.68978,-62.7576 -43.42792,-105.66465 27.7029,21.55319 55.04766,31.33658 88.78852,39.1099 32.98061,7.02675 58.62244,1.96277 89.05205,-10.4016 31.83859,36.47149 58.41635,61.07186 101.31041,78.50359 98.01944,39.83622 193.87982,-30.62039 185.31115,-135.79181 -4.2607,-52.30194 -13.39363,-70.09852 -33.62936,-115.89059 z"
     id="path4"
     style="stroke-width:3.37852" />
  <path
     fill="#34d0b6"
     d="M 268.59166,539.49606 C 249.82909,517.77735 233.18842,493.12294 227.75867,465.47541 182.91503,237.15017 486.27185,118.97251 656.86149,227.9546 c 75.86793,48.46762 110.44334,97.32377 131.31429,181.11767 -23.2699,-18.23912 -64.65364,-32.85677 -94.41087,-36.40731 -19.62753,-6.80716 -61.08222,0.43917 -80.87194,9.84082 -27.62182,-27.22525 -48.82051,-50.38986 -83.47365,-67.93644 -53.86507,-27.27255 -121.50559,-33.21487 -166.32219,14.04334 -62.35605,65.76087 -38.0894,155.21333 -4.01403,226.8726 -18.45509,12.9015 -71.94513,-5.67882 -90.49144,-15.98922 z"
     id="path5"
     style="stroke-width:3.37852" />
  <path
     fill="#0d6e6c"
     d="m 612.89297,382.50578 c 19.78972,-9.40165 61.24441,-16.64798 80.87194,-9.84082 1.29071,4.41875 24.87485,30.57985 30.91955,39.99501 14.65391,22.82003 25.34111,38.94775 34.79843,64.97711 -19.02613,-9.50638 -72.40127,-23.695 -89.80893,-11.459 -2.30774,-2.43572 -15.29252,-24.999 -18.37738,-30.20824 -12.91721,-21.8302 -21.47913,-34.89048 -38.40361,-53.46406 z"
     id="path6"
     style="stroke-width:3.37852" />
  <path
     fill="#0d6e6c"
     d="m 268.59166,539.49606 c 18.54631,10.3104 72.03635,28.89072 90.49144,15.98922 5.73723,5.17884 19.32007,33.22501 25.19583,41.95776 10.50473,15.60073 19.72552,27.82658 32.40283,41.91385 -30.42961,12.36437 -56.07144,17.42835 -89.05205,10.4016 l 3.47342,-1.90531 c -1.16232,-5.53019 -19.48564,-26.3503 -25.00999,-34.27903 -17.63067,-25.30979 -27.93269,-44.86305 -37.50148,-74.07809 z"
     id="path7"
     style="stroke-width:3.37852" />
</svg>
